# xmcd
#
# Track frame offsets: 
#        150
#        14489
#        30876
#        45658
#        62934
#        75393
#        91456
#        105283
#        124930
#        138482
#        151285
#
# Disc length: 2222 seconds
#
# Revision: 0
# Processed by: cddbd v1.5.2PL0 Copyright (c) Steve Scherf et al.
# Submitted via: ExactAudioCopy v0.95b3
#
DISCID=8108ac0b
DTITLE=C.W. Stoneking - King Hokum
DYEAR=2006
DGENRE=Blues
TTITLE0=Way Out in the World
TTITLE1=Dont Go Dancin
TTITLE2=Shes a Bread Baker
TTITLE3=Dodo Blues
TTITLE4=On A Christmas Day
TTITLE5=Charlie Bostocks Blues
TTITLE6=Goin the Country
TTITLE7=Bad Luck Everywhere You Go
TTITLE8=Rich Mans Blues
TTITLE9=You Took My Thing
TTITLE10=HandyMan Blues
EXTD=
EXTT0=
EXTT1=
EXTT2=
EXTT3=
EXTT4=
EXTT5=
EXTT6=
EXTT7=
EXTT8=
EXTT9=
EXTT10=
PLAYORDER=
